optRun
version=1
nRows=33
nColumns=21
inDegrees=no
endheader
time	r_shoulder_elev	r_elbow_flex	r_shoulder_elev_u	r_elbow_flex_u	TRIlong.activation	TRIlong.fiber_length	TRIlat.activation	TRIlat.fiber_length	TRImed.activation	TRImed.fiber_length	BIClong.activation	BIClong.fiber_length	BICshort.activation	BICshort.fiber_length	BRA.activation	BRA.fiber_length	DeltAnt.activation	DeltAnt.fiber_length	DeltPost.activation	DeltPost.fiber_length
        0.552501	       -1.128701	        2.793189	       -1.083301	        0.001541	        0.080176	        0.151790	        0.057985	        0.113571	        0.290309	        0.107702	        0.249411	        0.061468	        0.794177	        0.076830	        0.646978	        0.041636	        0.010113	        0.193381	        0.456095	        0.037614
        0.553282	       -1.129545	        2.793190	       -1.077014	        0.001642	        0.080330	        0.151787	        0.057998	        0.113571	        0.290599	        0.107702	        0.249591	        0.061469	        0.794855	        0.076857	        0.647622	        0.041636	        0.010112	        0.193402	        0.456462	        0.037558
        0.554063	       -1.130383	        2.793191	       -1.070848	        0.001496	        0.080485	        0.151784	        0.058011	        0.113572	        0.290889	        0.107701	        0.249771	        0.061470	        0.795532	        0.076884	        0.648265	        0.041635	        0.010111	        0.193424	        0.456827	        0.037503
        0.554844	       -1.131217	        2.793193	       -1.064788	        0.001197	        0.080640	        0.151782	        0.058023	        0.113572	        0.291179	        0.107701	        0.249951	        0.061471	        0.796208	        0.076911	        0.648907	        0.041635	        0.010109	        0.193445	        0.457192	        0.037448
        0.555625	       -1.132046	        2.793193	       -1.058824	        0.000836	        0.080795	        0.151779	        0.058036	        0.113572	        0.291469	        0.107700	        0.250131	        0.061472	        0.796883	        0.076938	        0.649549	        0.041635	        0.010108	        0.193466	        0.457557	        0.037393
        0.557005	       -1.133500	        2.793194	       -1.048476	        0.000254	        0.081070	        0.151774	        0.058059	        0.113572	        0.291980	        0.107699	        0.250448	        0.061474	        0.798073	        0.076984	        0.650682	        0.041634	        0.010106	        0.193503	        0.458199	        0.037297
        0.558019	       -1.134560	        2.793194	       -1.040981	        0.000014	        0.081273	        0.151771	        0.058075	        0.113572	        0.292356	        0.107698	        0.250680	        0.061476	        0.798945	        0.077018	        0.651514	        0.041633	        0.010105	        0.193530	        0.458670	        0.037227
        0.559034	       -1.135612	        2.793194	       -1.033591	       -0.000042	        0.081477	        0.151768	        0.058092	        0.113572	        0.292731	        0.107698	        0.250912	        0.061478	        0.799815	        0.077052	        0.652345	        0.041633	        0.010104	        0.193557	        0.459140	        0.037158
        0.560048	       -1.136657	        2.793194	       -1.026299	        0.000045	        0.081681	        0.151765	        0.058109	        0.113572	        0.293107	        0.107697	        0.251143	        0.061481	        0.800684	        0.077085	        0.653175	        0.041632	        0.010102	        0.193584	        0.459609	        0.037089
        0.561063	       -1.137695	        2.793194	       -1.019081	        0.000205	        0.081885	        0.151762	        0.058125	        0.113572	        0.293482	        0.107696	        0.251374	        0.061483	        0.801551	        0.077118	        0.654003	        0.041632	        0.010101	        0.193611	        0.460077	        0.037020
        0.562077	       -1.138725	        2.793195	       -1.011931	        0.000369	        0.082090	        0.151759	        0.058142	        0.113572	        0.293856	        0.107695	        0.251604	        0.061485	        0.802416	        0.077151	        0.654831	        0.041631	        0.010100	        0.193637	        0.460544	        0.036953
        0.563690	       -1.140348	        2.793195	       -1.000669	        0.000532	        0.082418	        0.151754	        0.058168	        0.113572	        0.294452	        0.107694	        0.251969	        0.061490	        0.803787	        0.077203	        0.656145	        0.041631	        0.010098	        0.193679	        0.461285	        0.036846
        0.564928	       -1.141582	        2.793196	       -0.992131	        0.000530	        0.082670	        0.151750	        0.058189	        0.113572	        0.294908	        0.107693	        0.252249	        0.061493	        0.804837	        0.077242	        0.657152	        0.041630	        0.010096	        0.193711	        0.461851	        0.036764
        0.566166	       -1.142805	        2.793197	       -0.983672	        0.000456	        0.082923	        0.151747	        0.058209	        0.113572	        0.295364	        0.107692	        0.252527	        0.061497	        0.805883	        0.077282	        0.658157	        0.041629	        0.010095	        0.193743	        0.462416	        0.036684
        0.567404	       -1.144017	        2.793197	       -0.975231	        0.000364	        0.083176	        0.151744	        0.058229	        0.113572	        0.295820	        0.107692	        0.252805	        0.061500	        0.806927	        0.077320	        0.659161	        0.041629	        0.010093	        0.193774	        0.462979	        0.036604
        0.568642	       -1.145220	        2.793198	       -0.966868	        0.000298	        0.083431	        0.151741	        0.058250	        0.113572	        0.296275	        0.107691	        0.253082	        0.061504	        0.807968	        0.077359	        0.660163	        0.041628	        0.010092	        0.193805	        0.463541	        0.036525
        0.569880	       -1.146411	        2.793198	       -0.958581	        0.000282	        0.083686	        0.151738	        0.058270	        0.113572	        0.296730	        0.107690	        0.253358	        0.061508	        0.809006	        0.077397	        0.661164	        0.041628	        0.010090	        0.193836	        0.464101	        0.036447
        0.571439	       -1.147897	        2.793198	       -0.948172	        0.000317	        0.084008	        0.151734	        0.058296	        0.113571	        0.297302	        0.107689	        0.253705	        0.061513	        0.810308	        0.077444	        0.662421	        0.041627	        0.010088	        0.193875	        0.464804	        0.036349
        0.572997	       -1.149366	        2.793199	       -0.937820	        0.000365	        0.084332	        0.151730	        0.058322	        0.113571	        0.297874	        0.107688	        0.254051	        0.061519	        0.811606	        0.077491	        0.663676	        0.041626	        0.010087	        0.193913	        0.465505	        0.036253
        0.574555	       -1.150820	        2.793199	       -0.927537	        0.000386	        0.084657	        0.151727	        0.058347	        0.113571	        0.298444	        0.107686	        0.254395	        0.061524	        0.812900	        0.077537	        0.664929	        0.041625	        0.010085	        0.193951	        0.466203	        0.036158
        0.576113	       -1.152257	        2.793200	       -0.917286	        0.000372	        0.084983	        0.151724	        0.058373	        0.113571	        0.299015	        0.107685	        0.254738	        0.061530	        0.814189	        0.077583	        0.666179	        0.041625	        0.010083	        0.193989	        0.466899	        0.036063
        0.577671	       -1.153678	        2.793201	       -0.907104	        0.000339	        0.085310	        0.151720	        0.058399	        0.113571	        0.299584	        0.107684	        0.255080	        0.061536	        0.815474	        0.077628	        0.667427	        0.041624	        0.010082	        0.194026	        0.467592	        0.035970
        0.579580	       -1.155398	        2.793201	       -0.894684	        0.000312	        0.085713	        0.151717	        0.058430	        0.113570	        0.300281	        0.107683	        0.255498	        0.061543	        0.817042	        0.077683	        0.668953	        0.041623	        0.010080	        0.194071	        0.468438	        0.035857
        0.581490	       -1.157095	        2.793202	       -0.882376	        0.000303	        0.086118	        0.151713	        0.058462	        0.113570	        0.300978	        0.107682	        0.255913	        0.061550	        0.818604	        0.077737	        0.670475	        0.041622	        0.010078	        0.194116	        0.469280	        0.035746
        0.583399	       -1.158767	        2.793202	       -0.870086	        0.000312	        0.086524	        0.151710	        0.058493	        0.113570	        0.301673	        0.107680	        0.256327	        0.061557	        0.820159	        0.077791	        0.671993	        0.041621	        0.010076	        0.194161	        0.470119	        0.035637
        0.585308	       -1.160417	        2.793203	       -0.857896	        0.000323	        0.086933	        0.151707	        0.058525	        0.113570	        0.302367	        0.107679	        0.256739	        0.061565	        0.821707	        0.077843	        0.673508	        0.041620	        0.010074	        0.194204	        0.470953	        0.035529
        0.589536	       -1.163953	        2.793204	       -0.831316	        0.000318	        0.087846	        0.151700	        0.058595	        0.113569	        0.303901	        0.107676	        0.257643	        0.061582	        0.825103	        0.077956	        0.676846	        0.041618	        0.010070	        0.194299	        0.472785	        0.035297
        0.593764	       -1.167377	        2.793206	       -0.804774	        0.000309	        0.088768	        0.151694	        0.058665	        0.113568	        0.305430	        0.107673	        0.258539	        0.061598	        0.828469	        0.078065	        0.680167	        0.041616	        0.010066	        0.194391	        0.474600	        0.035074
        0.597992	       -1.170690	        2.793207	       -0.778951	        0.000290	        0.089698	        0.151689	        0.058736	        0.113568	        0.306955	        0.107670	        0.259427	        0.061615	        0.831803	        0.078171	        0.683471	        0.041614	        0.010063	        0.194480	        0.476397	        0.034858
        0.604140	       -1.175295	        2.793209	       -0.742431	        0.000283	        0.091069	        0.151682	        0.058838	        0.113567	        0.309165	        0.107666	        0.260702	        0.061639	        0.836589	        0.078318	        0.688242	        0.041611	        0.010058	        0.194606	        0.478977	        0.034557
        0.610289	       -1.179681	        2.793210	       -0.706789	        0.000278	        0.092458	        0.151676	        0.058941	        0.113566	        0.311366	        0.107662	        0.261959	        0.061662	        0.841310	        0.078458	        0.692979	        0.041608	        0.010054	        0.194726	        0.481521	        0.034272
        0.616438	       -1.183852	        2.793212	       -0.671978	        0.000272	        0.093866	        0.151671	        0.059044	        0.113565	        0.313557	        0.107658	        0.263198	        0.061684	        0.845964	        0.078591	        0.697679	        0.041605	        0.010050	        0.194842	        0.484028	        0.034000
        0.626576	       -1.190337	        2.793215	       -0.615711	        0.000261	        0.096227	        0.151665	        0.059214	        0.113564	        0.317152	        0.107652	        0.265204	        0.061719	        0.853506	        0.078798	        0.705358	        0.041601	        0.010044	        0.195025	        0.488088	        0.033579
